<svg xmlns="http://www.w3.org/2000/svg" viewBox="0 0 151.95 196.89"><defs><style>.cls-1{isolation:isolate;}.cls-2{fill:#f2c1b3;}.cls-3{mix-blend-mode:multiply;}.cls-4{opacity:0.5;mix-blend-mode:screen;}.cls-5{fill:#333;}</style></defs><title>Asset 3</title><g class="cls-1"><g id="Layer_2" data-name="Layer 2"><g id="Layer_1-2" data-name="Layer 1"><path class="cls-2" d="M149.83,74.53c-.36,7.66-3,15.1-5.84,22.15-3.42,8.56-8.46,17.42-11.38,26.61-5.53,12.23-7.17,26.19-16.59,36.45-5.09,5.55-12.2,8.91-19.35,10.88a61.31,61.31,0,0,1-12.9,1.89c-4.52.25-9.15-.36-13.63.2a.13.13,0,0,0,0,.26c6,2.3,13.26,2.34,20,1.5-8,15.93-26,21.63-43,18.63-8.6-1.52-16.62-5.43-23.91-10.11-1.56-1-3.06-2.07-4.56-3.15-3.38-2.44-3.89-5-1.57-8.44,2.09-3.13,4.48-6.25,6.07-9.69a17.13,17.13,0,0,0,1.58,1.2,17.64,17.64,0,0,0,9.94,3.21c.95,0,1.21-1.59.23-1.73-10.67-1.5-16.11-11.67-16.94-21.78-.93-11.24,3-22.3,3.3-33.5a53.74,53.74,0,0,0-6.46-26.19A66,66,0,0,0,6.7,71.65a13.81,13.81,0,0,1-3.61-8.28c-.17-3.84,3.61-5.81,6.59-6.75,8.9-2.78,19.31,1.65,25.9,7.65,7.69,7,8.47,17.63,13.86,26.1,5,7.89,13,14,19.86,20.19,8.14,7.29,13.49,17.51,12.35,28.75,0,.16.21.16.26,0,3.65-9.46-1.31-19.17-7.29-26.32-7.41-8.86-17.15-15.32-23.42-25.21-.25-.4-.47-.81-.7-1.22a.9.9,0,0,0,.25-.35C55.74,73.38,57.5,58.66,59,45c.77-7.17,1.15-14.38,1.31-21.59.16-7-.93-17.75,7.78-20.07,7-1.87,13.6,6.16,16.65,11.3,3.37,5.67,4.88,12.4,5.65,18.89C92,47.76,88.36,60.91,83,73.91c-.41,1,1.12,1.51,1.66.7C92.73,62.46,95.21,46,93.24,31.74q-.16-1.16-.37-2.35,2.06-5.82,3.92-11.7a11.46,11.46,0,0,1,4.34-6.35c3.93-2.7,8.06,1.59,10.12,4.47,5,6.94,7.88,15.43,9.38,23.76a59.52,59.52,0,0,1-1.45,26,63.33,63.33,0,0,1-4.68,12c-1.79,3.54-4.28,6.76-5.94,10.33a.62.62,0,0,0,1,.75C117,82.85,121,71.35,123,62.49a61.38,61.38,0,0,0,.27-24.77c1.34-2.63,2-5.39,4.6-7.29,5.16-3.79,9.44,3.57,10.85,7.38,2.8,7.6,3.11,15.92,2.37,23.9-.72,7.73-3,15.3-5.66,22.56-2.24,6.11-5.18,12.06-7.46,18.17,0,.83.12,1.67.18,2.51a5.52,5.52,0,0,0,0,.63v0h0a4.3,4.3,0,0,0,.41,1.36,0,0,0,0,0,0,0c1.31-1.39,1.53-3.4,2-5.19.08-.29.18-.58.27-.86a129.33,129.33,0,0,0,9.16-21.6,78.09,78.09,0,0,0,4.1-22.73C149.87,60.22,150.12,68.47,149.83,74.53Z"/><g class="cls-3"><path class="cls-2" d="M50.5,86.6c.23.41.45.82.7,1.22,4.89,7.73,11.91,13.37,18.29,19.69a.84.84,0,0,0-.07-.82A85.28,85.28,0,0,1,58,88a57.68,57.68,0,0,1-3.43-10.95c-.13-.63-.23-1.28-.32-1.93a93.37,93.37,0,0,1-3.48,11.12A.9.9,0,0,1,50.5,86.6Z"/><path class="cls-2" d="M30.19,165.48a19.49,19.49,0,0,1-5.48-2.58,17.1,17.1,0,0,1-1.58-1.2,32.79,32.79,0,0,1-1.9,3.47A17.83,17.83,0,0,0,30.19,165.48Z"/><path class="cls-2" d="M77.1,174.65a28.51,28.51,0,0,0,3.17,1.78,20,20,0,0,1,4.52,3.67c.32.32.61.66.9,1a33.77,33.77,0,0,0,4.38-6.64A53,53,0,0,1,77.1,174.65Z"/></g><g class="cls-3"><path class="cls-2" d="M96.79,17.69q-1.86,5.89-3.92,11.7.21,1.19.37,2.35c2,14.26-.5,30.72-8.59,42.87a1,1,0,0,1-1.49.14,21.64,21.64,0,0,0-1.29,4.38c-.09.51.34,1.18.95.95,5.93-2.3,9.46-8.76,12.19-14.13,3.35-6.59,4.95-14.11,5.61-21.41.73-8.07-1.89-16.25-.72-24.21.46-3.15,1.81-6.2,4.56-8a4.81,4.81,0,0,1,2.54-.8c-1.81-1.14-3.86-1.58-5.86-.21A11.46,11.46,0,0,0,96.79,17.69Z"/><path class="cls-2" d="M123.3,37.71A61.38,61.38,0,0,1,123,62.49c-2,8.87-6.05,20.36-13.49,26.17a.67.67,0,0,1-.65.12,16,16,0,0,1-1.8,2.14c-.06.05,0,.15.08.11,1.28-.83,3.1-1.22,4.19-2.17,1.42-1.23,2.76-2.52,4.06-3.88a46.41,46.41,0,0,0,7.28-9.14,51.67,51.67,0,0,0,6.8-21.71c.55-7.53-3.65-18.27,1.56-24.74a4.76,4.76,0,0,0-3.16,1C125.31,32.32,124.64,35.08,123.3,37.71Z"/><path class="cls-2" d="M50.5,86.6c.23.41.45.82.7,1.22,6.26,9.89,16,16.35,23.42,25.21,6,7.15,10.94,16.86,7.29,26.32,0,.13-.27.13-.26,0,1.14-11.23-4.21-21.45-12.35-28.75-3.06-2.74-6.35-5.49-9.5-8.4A40.92,40.92,0,0,0,63,107c4.27,5.65,9.59,10.48,13.73,16.22s7.24,14.74,2.77,21c-.87,1.22,1.1,2.3,2,1.16,7.9-10.31,4.24-22.15-2.92-31.79-4-5.33-8.78-9.93-12.22-15.66C62.74,92,62.17,85.15,62.67,78.41c1-14,7.55-27,9.09-41a49,49,0,0,0-2.24-20.2c-1-3.35-2.31-6.65-1.73-10.22a7.16,7.16,0,0,1,2.14-3.93A8.18,8.18,0,0,0,68,3.36c-8.71,2.32-7.62,13.05-7.78,20.07C60.1,30.64,59.72,37.85,59,45c-1.46,13.64-3.22,28.36-8.21,41.23A.9.9,0,0,1,50.5,86.6Z"/><path class="cls-2" d="M70.14,172.7c4.48-.56,9.11.05,13.63-.2a61.31,61.31,0,0,0,12.9-1.89c7.15-2,14.26-5.33,19.35-10.88a38,38,0,0,0,4.43-5.93c-6.1,5.67-13.91,9.32-21.91,11.5C87.7,168.24,76,167.93,65,166.11c-9.77-1.62-21.22-4.11-29.06-10.54-15.11-12.41-8.33-36.66-10-53.45C25.06,92.78,22,84.18,15.42,77.38,11.05,72.9,4,67.57,3.46,61.21a5,5,0,0,0-.37,2.16A13.81,13.81,0,0,0,6.7,71.65a66,66,0,0,1,8.08,11.26,53.73,53.73,0,0,1,6.46,26.19c-.33,11.2-4.23,22.27-3.3,33.5.83,10.11,6.27,20.28,16.94,21.78,1,.14.72,1.73-.23,1.73a17.64,17.64,0,0,1-9.94-3.21,17.1,17.1,0,0,1-1.58-1.2c-1.59,3.44-4,6.56-6.07,9.69-2.33,3.48-1.81,6,1.57,8.44,1.5,1.08,3,2.15,4.56,3.15,7.29,4.68,15.31,8.59,23.91,10.11,17,3,35-2.7,43-18.63-6.7.84-14,.8-20-1.5A.13.13,0,0,1,70.14,172.7Z"/><path class="cls-2" d="M87.43,113a45.46,45.46,0,0,1,10,1.74c6.63,1.85,12.39,5.92,18.71,8.52a1.37,1.37,0,0,0,1.68-1.68c-3.07-7.39-10.11-11.22-17.34-13.66a40.16,40.16,0,0,0-12-2c-3-.06-7.86-.17-9.31,3.12a1.83,1.83,0,0,0,.27,2.09C81.36,113.35,84.8,112.84,87.43,113Z"/><path class="cls-2" d="M148.82,63a11.44,11.44,0,0,0-4.57-6.46,78.09,78.09,0,0,1-4.1,22.73,129.33,129.33,0,0,1-9.16,21.6c-.09.29-.19.57-.27.86-.52,1.79-.73,3.79-2,5.19a0,0,0,0,1,0,0,4.3,4.3,0,0,1-.41-1.36h0a13.11,13.11,0,0,0-.47,2.85.57.57,0,0,0,1,.4c2.28-2.24,3.49-5.49,4.93-8.31,1.66-3.23,3.35-6.45,5-9.71,3.37-6.84,6.54-13.61,8.64-21C147.88,67.62,148.4,65.34,148.82,63Z"/><path class="cls-2" d="M58.66,101.09l-.77-.75A7.25,7.25,0,0,0,58.66,101.09Z"/><path class="cls-2" d="M84.5,154.94a2.64,2.64,0,0,0,3.84,1.56c2.91-1.52,4-5.23,5.5-8a54.55,54.55,0,0,1,6.62-10.24c5.15-6,11.77-7.79,18.88-10.34a1.16,1.16,0,0,0,.27-2.09c-7.23-5.39-17.26.3-22.78,5.49a46.43,46.43,0,0,0-8.26,11.32C86.64,146.05,83.54,150.92,84.5,154.94Z"/></g><g class="cls-4"><path class="cls-2" d="M70.49,122.82c-3.91-5.92-12.08-13.45-19.77-12.61-2.53.28-4.71,3.51-2.31,5.58,2.18,1.88,4.79,3.08,7.26,4.53A24.27,24.27,0,0,1,63,127.2c3.59,5.06,3.9,12,7.79,16.71a1.5,1.5,0,0,0,2.13,0C78.19,138.14,74.15,128.35,70.49,122.82Z"/><path class="cls-2" d="M123.25,132.94c-4.41-1.47-9.11,2.38-10.38,6.44-.81,2.6,2.09,4.25,4.22,3.24,1.22-.58,2.34-1.29,3.54-1.9a12.17,12.17,0,0,0,3.94-2.81A3,3,0,0,0,123.25,132.94Z"/><path class="cls-2" d="M85.83,21.87C84.39,17,80.59,9.87,75.25,8.54a3.11,3.11,0,0,0-3.79,3.79c.88,4.13,4.5,7.86,6.29,11.7,2.07,4.43,3.64,9.21,5.33,13.76a.76.76,0,0,0,1.37.18C87.39,32.79,87.49,27.57,85.83,21.87Z"/><path class="cls-2" d="M116.22,30.54c-.84-2.77-8.52-19.44-13-12.69-1.44,2.17,0,4.66,1.1,6.66A52.34,52.34,0,0,1,108,32.82c.92,2.86,1.51,5.81,2.3,8.7.85,3.12.54,6.39,1.29,9.52a1.38,1.38,0,0,0,2.29.6C118.15,46.09,118.18,37,116.22,30.54Z"/><path class="cls-2" d="M140.5,48.1c-.5-5-2.06-11.42-6.4-14.38-1.6-1.09-3.25.42-3.45,2-.55,4.3,1.75,9.2,2.77,13.36,1.1,4.49,2.12,9.13,3.57,13.5a.62.62,0,0,0,1.12.15A26.6,26.6,0,0,0,140.5,48.1Z"/><path class="cls-2" d="M149.22,75a.45.45,0,0,0-.65-.27c-1.89,1.36-2.45,3.76-3.13,5.88-.84,2.62-1.87,5.52-1.62,8.3,0,.52.73,1,1.14.47,1.66-2,2.35-4.54,3.2-7C148.93,80.2,150.05,77.3,149.22,75Z"/><path class="cls-2" d="M30.51,60.66c-4.57-3.15-12.88-6.31-17.94-2.57-1.65,1.22-2.39,4.36,0,5.4,4.19,1.82,8.71,1.37,12.82,3.79,3.76,2.22,6,5.73,8.93,8.79,1.32,1.4,3.18.18,3.39-1.4C38.39,69.4,34.73,63.56,30.51,60.66Z"/><path class="cls-2" d="M103.66,96.07c-4.52-6.54-13.49-9.74-21.19-8.39-3.51.62-3.48,6.4,0,7,3.24.59,6.51.91,9.75,1.57s6.24,1.69,9.41,2.43C103.06,99,104.61,97.45,103.66,96.07Z"/></g><path class="cls-5" d="M151.69,67.38c-.51-5-2.23-11-7.43-12.81q0-2.95-.31-5.89c-.66-6.6-2.66-18.48-10.16-21-5.42-1.79-9.73,1.77-11.22,6.58q-.43-1.8-1-3.57a62.87,62.87,0,0,0-6.34-14.13c-2.17-3.66-5.39-8.23-10-8.71-9.78-1-11.76,10.48-12.94,18.68-2.52-11.4-8.59-24-20.76-26.3C54.92-2.91,57.31,21.79,56.88,31.15c-.42,9.13-1.4,18.22-2.68,27.26C53,67.17,50.75,75.78,49.43,84.5c-1.89-4.1-3-8.57-4.82-12.71A31.77,31.77,0,0,0,36,60.59a32.23,32.23,0,0,0-24.5-7.51C3.63,54-2.83,60.75,1.27,69c2.45,4.9,6.59,8.67,9.48,13.3A51.2,51.2,0,0,1,17.21,99c2.63,12.64-1.5,25.13-2.24,37.72-.47,8,1.08,17.77,6.85,23.76a51.29,51.29,0,0,0-9.19,13.07c-1.55,3.17,1.14,6.1,3.47,7.87,8.63,6.58,18.16,11.75,28.78,14.22,17.5,4.07,37.62-1.77,46.58-17.77.7-.69,1.38-1.41,2.1-2.07,1-.88,2.08-1.66,3.15-2.47a44.36,44.36,0,0,0,19.42-9.85c7.81-6.79,11.74-16.65,14.82-26.74a.39.39,0,0,0,.17-.23,156.9,156.9,0,0,1,8.61-24.22,199.22,199.22,0,0,0,9.16-21.83A55.73,55.73,0,0,0,151.69,67.38Zm-1.86,7.15c-.36,7.66-3,15.1-5.84,22.15-3.42,8.56-8.46,17.42-11.38,26.61-5.53,12.23-7.17,26.19-16.59,36.45-5.09,5.55-12.2,8.91-19.35,10.88a61.31,61.31,0,0,1-12.9,1.89c-4.52.25-9.15-.36-13.63.2a.13.13,0,0,0,0,.26c6,2.3,13.26,2.34,20,1.5-8,15.93-26,21.63-43,18.63-8.6-1.52-16.62-5.43-23.91-10.11-1.56-1-3.06-2.07-4.56-3.15-3.38-2.44-3.89-5-1.57-8.44,2.09-3.13,4.48-6.25,6.07-9.69a17.13,17.13,0,0,0,1.58,1.2,17.64,17.64,0,0,0,9.94,3.21c.95,0,1.21-1.59.23-1.73-10.67-1.5-16.11-11.67-16.94-21.78-.93-11.24,3-22.3,3.3-33.5a53.74,53.74,0,0,0-6.46-26.19A66,66,0,0,0,6.7,71.65a13.81,13.81,0,0,1-3.61-8.28c-.17-3.84,3.61-5.81,6.59-6.75,8.9-2.78,19.31,1.65,25.9,7.65,7.69,7,8.47,17.63,13.86,26.1,5,7.89,13,14,19.86,20.19,8.14,7.29,13.49,17.51,12.35,28.75,0,.16.21.16.26,0,3.65-9.46-1.31-19.17-7.29-26.32-7.41-8.86-17.15-15.32-23.42-25.21-.25-.4-.47-.81-.7-1.22a.9.9,0,0,0,.25-.35C55.74,73.38,57.5,58.66,59,45c.77-7.17,1.15-14.38,1.31-21.59.16-7-.93-17.75,7.78-20.07,7-1.87,13.6,6.16,16.65,11.3,3.37,5.67,4.88,12.4,5.65,18.89C92,47.76,88.36,60.91,83,73.91c-.41,1,1.12,1.51,1.66.7C92.73,62.46,95.21,46,93.24,31.74q-.16-1.16-.37-2.35,2.06-5.82,3.92-11.7a11.46,11.46,0,0,1,4.34-6.35c3.93-2.7,8.06,1.59,10.12,4.47,5,6.94,7.88,15.43,9.38,23.76a59.52,59.52,0,0,1-1.45,26,63.33,63.33,0,0,1-4.68,12c-1.79,3.54-4.28,6.76-5.94,10.33a.62.62,0,0,0,1,.75C117,82.85,121,71.35,123,62.49a61.38,61.38,0,0,0,.27-24.77c1.34-2.63,2-5.39,4.6-7.29,5.16-3.79,9.44,3.57,10.85,7.38,2.8,7.6,3.11,15.92,2.37,23.9-.72,7.73-3,15.3-5.66,22.56-2.24,6.11-5.18,12.06-7.46,18.17,0,.83.12,1.67.18,2.51a5.52,5.52,0,0,0,0,.63v0h0a4.3,4.3,0,0,0,.41,1.36,0,0,0,0,0,0,0c1.31-1.39,1.53-3.4,2-5.19.08-.29.18-.58.27-.86a129.33,129.33,0,0,0,9.16-21.6,78.09,78.09,0,0,0,4.1-22.73C149.87,60.22,150.12,68.47,149.83,74.53Z"/><path class="cls-5" d="M115.42,118.27c-7.3-8.17-22.12-12.5-32.73-10a1.31,1.31,0,0,0-.93.93c0-.25-.16.43-.09.57l.23.46a1.33,1.33,0,0,0,1.15.66c5.65.21,10.94.19,16.51,1.51s10.26,4.09,15.33,6.56A.44.44,0,0,0,115.42,118.27Z"/><path class="cls-5" d="M112.33,125.23A36.44,36.44,0,0,0,96.1,136.38a44.34,44.34,0,0,0-5.54,8.42c-1.11,2.15-3.06,5.3-1.73,7.61a.27.27,0,0,0,.36.09c2-.93,2.36-3.32,3.24-5.2a44.31,44.31,0,0,1,5.69-8.91A58.16,58.16,0,0,1,112.66,126C113.07,125.77,112.82,125.07,112.33,125.23Z"/></g></g></g></svg>