<svg xmlns="http://www.w3.org/2000/svg" viewBox="0 0 127.61 167.59"><defs><style>.cls-1{isolation:isolate;}.cls-2{fill:#f2c1b3;}.cls-3{mix-blend-mode:multiply;}.cls-4{opacity:0.5;mix-blend-mode:screen;}.cls-5{fill:#333;}</style></defs><title>Asset 1</title><g class="cls-1"><g id="Layer_2" data-name="Layer 2"><g id="Layer_1-2" data-name="Layer 1"><path class="cls-2" d="M84.15,16.18a.93.93,0,0,0,.57-.12c6.91-3.9,13.9-1.69,17.78,5.4s1.9,16.06-.58,23.32c-2.36,6.93-5.91,14-10.82,19.4a16.17,16.17,0,0,1-10.26,5.36c-3.72.37-5.83-1.43-7.5-4.19A29.4,29.4,0,0,0,78,62.89c5.75-3.75,10.62-10.54,7.52-17.64-1.47-3.36-4.68-5.75-8.3-7.58C81.7,32.09,84.78,23.56,84.15,16.18Z"/><path class="cls-2" d="M73.37,69.84a31.61,31.61,0,0,0-6.19-2.38l-.69-.18a29.44,29.44,0,0,0,4.45-1A6.63,6.63,0,0,0,73.37,69.84Z"/><path class="cls-2" d="M53.28,28.59C54.92,22.33,53.17,15.41,54.7,9S68.25,4,72.78,5.12c6.43,1.53,9.1,7.87,9,14.12-.09,6.65-4.16,11.72-6.57,17.5-3.27-1.45-6.68-2.53-9.31-3.52A124.83,124.83,0,0,0,53.1,28.9.68.68,0,0,0,53.28,28.59Z"/><path class="cls-2" d="M11.71,23.54C16,16,21.93,8.93,29.54,4.87A20.49,20.49,0,0,1,41.08,2.66c4.48.39,7.84,2.85,11,5.86a30.9,30.9,0,0,0-.62,5.3c-.31,4.62-1,10.34.49,14.77l0,0a35,35,0,0,0-13.52-.86,28,28,0,0,0-11.9,5.45c.66-1.94-.38-4.06-.77-6.07-.69-3.56-.24-7.53-1.43-10.94a.32.32,0,0,0-.58-.08c-1.38,2.74-1.13,6.24-.73,9.23.35,2.61.36,7,2.84,8.37-3.22,2.42-6.22,5.22-9.05,7.77-6.15,5.52-12,11.75-14.24,20C1.51,48.33,5.06,35,11.71,23.54Z"/><path class="cls-2" d="M121.41,85.31c-2.51,10.26-6,20.79-11.67,29.69a31,31,0,0,1-11.07,10.61c-4.47,2.51-9,2.55-13.95,2.24a.78.78,0,0,0-.37,1.43c4.86,2.26,10.1,1.36,14.81-1a41,41,0,0,0-2,11.08,42.24,42.24,0,0,0,.46,7.53c.42,3.16,2,6.53.58,9.65-1.14,2.54-5.67,3.61-7.95,4.45a67.28,67.28,0,0,1-7.57,2.25,66.41,66.41,0,0,1-33.86-1c-4.93-1.42-11.71-3.38-15-7.76-1.82-2.46-1.25-6.06-1-8.92a75.21,75.21,0,0,0,.13-8.74,55.69,55.69,0,0,0-2.44-15.1c6.05,4.74,13.49,8,21.06,7.37.53,0,.72-.92.13-1-19.86-3.2-31.19-19-39.25-36.72C8.24,82,2.35,71.44,5.44,60.9c2.82-9.6,12-16.63,19.18-22.69a37,37,0,0,1,12.47-7.33c5.44-1.72,11.17-.36,16.49,1.12,4.72,1.32,9.36,2.93,13.94,4.7S77,40.24,80.76,43.46c10.14,8.6-4.78,18.85-12.28,21-9.32,2.66-19.19-.73-26-7.59a33.62,33.62,0,0,1-3.71-4.56.77.77,0,0,0-1.33.8,27.11,27.11,0,0,0,9,9.95c-4.63-.74-9.29,0-13.08,2.87-.71.55-.32,1.78.63,1.54,5.2-1.36,9.65-2.35,15-1.06s9.64,4.72,13.09,8.87c7.79,9.38,7.69,21.41,7.62,33a.39.39,0,0,0,.77.11c3.62-11.75.77-25.44-6.59-35A26,26,0,0,0,59.49,69c1.68.1,3.42,0,5,.28a28.21,28.21,0,0,1,10.6,4.33c6.34,4.1,10,10.76,12.62,17.78.1.27.55.26.53-.07A26.63,26.63,0,0,0,78,72.74c-.52-.4-1-.77-1.58-1.13,3.24,1.22,7.22.58,10.23-.91a21.41,21.41,0,0,0,2.11-1.22c.12,2.24,3,4.54,4.59,5.45,3.67,2.09,8.47,1.25,12.19-.17,7.86-3,14.09-12.15,12-20.92-.11-.45-.85-.5-.92,0-1,7.09-3.22,13.28-9.35,17.28a15.73,15.73,0,0,1-11,2.38,7.93,7.93,0,0,1-5-3.31c-.49-.68-.65-1.25-1-1.75C97,63.29,101,54.45,104,46.62a45,45,0,0,0,3.09-14C130.39,36.75,125.6,68.13,121.41,85.31Z"/><g class="cls-3"><path class="cls-2" d="M113.95,68.37a19.76,19.76,0,0,1-8.43,6.4c-3.72,1.42-8.51,2.26-12.19.17-1.61-.91-4.48-3.21-4.59-5.45a21.41,21.41,0,0,1-2.11,1.22c-3,1.49-7,2.12-10.23.91.54.36,1.07.73,1.58,1.13A26.63,26.63,0,0,1,88.23,91.28c0,.33-.43.35-.53.07-2.58-7-6.28-13.68-12.62-17.78a28.21,28.21,0,0,0-10.6-4.33c-1.58-.26-3.32-.18-5-.28a26,26,0,0,1,4.45,4.44c7.36,9.53,10.21,23.21,6.59,35a.39.39,0,0,1-.77-.11c.06-11.58.16-23.61-7.62-33C58.69,71.11,54.29,67.66,49,66.4s-9.81-.3-15,1.06c-.95.25-1.34-1-.63-1.54C37.19,63,41.85,62.31,46.48,63c-.53-.35-1-.72-1.55-1.11C40,62,32,63.44,31.35,68.18a.58.58,0,0,0,.39.69c1.83.71,3.73-.07,5.58-.42a24.49,24.49,0,0,1,9,.19c5.64,1.1,10.25,4.39,13.91,8.7a31.26,31.26,0,0,1,6.45,14.32c1.32,6.6,1,12.89.93,19.54,0,1.86,2.71,2.72,3.6,1,6.36-12.5,4.46-28-4-39a20.26,20.26,0,0,1,3,1,25.32,25.32,0,0,1,9.07,6.93,30.54,30.54,0,0,1,5.27,10.3c1.11,3.56,1,7.13,1.68,10.77a.8.8,0,0,0,1.33.35c4.64-5.84,3.86-14.81.67-21.61,0-.13,0-.26,0-.39,0-.72-.08-1.48-.14-2.25,3.41,2.64,9.11,3.14,13,2.25C106.15,79.37,113.25,74.18,113.95,68.37Z"/><path class="cls-2" d="M79,66.54a7.71,7.71,0,0,1-2.46-2.78,29.76,29.76,0,0,1-3.22,1.6c1.67,2.76,3.78,4.56,7.5,4.19a16.17,16.17,0,0,0,10.26-5.36c.28-.3.55-.61.82-.93-2.26,2-5,3.79-7.65,4.17A8.63,8.63,0,0,1,79,66.54Z"/><path class="cls-2" d="M71.52,63.31a32,32,0,0,0,2.86-1.48A2.53,2.53,0,0,0,71.52,63.31Z"/><path class="cls-2" d="M90.2,68.45a3.24,3.24,0,0,1,.21.33,12.84,12.84,0,0,0,.87-1.21C90.93,67.87,90.57,68.17,90.2,68.45Z"/><path class="cls-2" d="M56.87,64.81a30.52,30.52,0,0,0-6.28-2.16A27,27,0,0,0,56.87,64.81Z"/><path class="cls-2" d="M62,65.34a23.8,23.8,0,0,0,3.55-.27A14.63,14.63,0,0,0,62,65.34Z"/><path class="cls-2" d="M73.37,69.84a6.63,6.63,0,0,1-2.43-3.6,29.43,29.43,0,0,1-4.45,1l.69.18A31.61,31.61,0,0,1,73.37,69.84Z"/></g><g class="cls-3"><path class="cls-2" d="M67.23,119.5c6.38-7.86,11.48-16.17,11.39-26.69a29.54,29.54,0,0,0-.43-4.66,31.81,31.81,0,0,1,1.91,3.8,35.61,35.61,0,0,1,2.66,10.17c.33,3.85.78,8.6-.25,12.36a1.32,1.32,0,0,0,2.2,1.28,27.91,27.91,0,0,0,7.57-13.64,44.15,44.15,0,0,1,2.51-7,34.24,34.24,0,0,1,6.28-8.3c2.1-2.14,4.38-4.13,6.61-6.14A28.33,28.33,0,0,0,112,78a19.79,19.79,0,0,0,6.83-11.63c.56-2.86.68-7.33-.87-10.25a13.33,13.33,0,0,0-.67-3.89.08.08,0,0,0-.15,0c-3.23,5.12-5.51,10.52-9.92,14.83A22.23,22.23,0,0,1,105,68.86a12.68,12.68,0,0,1-6.06.68c-4.87-.73-.81-5.15.7-7.47a76.56,76.56,0,0,0,8.07-16.67,55.12,55.12,0,0,0,3.09-11.82,23.51,23.51,0,0,0-3.74-1,45,45,0,0,1-3.09,14c-3,7.83-7,16.67-13.8,21.83.38.5.53,1.07,1,1.75a7.93,7.93,0,0,0,5,3.31,15.73,15.73,0,0,0,11-2.38c6.13-4,8.31-10.19,9.35-17.28.07-.5.82-.45.92,0,2.07,8.77-4.17,17.93-12,20.92-3.72,1.42-8.51,2.26-12.19.17-1.61-.91-4.48-3.21-4.59-5.45a21.41,21.41,0,0,1-2.11,1.22c-3,1.49-7,2.12-10.23.91.54.36,1.07.73,1.58,1.13A26.63,26.63,0,0,1,88.23,91.28c0,.33-.43.35-.53.07-2.58-7-6.28-13.68-12.62-17.78a28.21,28.21,0,0,0-10.6-4.33c-1.58-.26-3.32-.18-5-.28a26,26,0,0,1,4.45,4.44c7.36,9.53,10.21,23.21,6.59,35a.39.39,0,0,1-.77-.11c.06-11.58.16-23.61-7.62-33C58.69,71.11,54.29,67.66,49,66.4s-9.81-.3-15,1.06c-.95.25-1.34-1-.63-1.54a15,15,0,0,1,6.08-2.77,19.94,19.94,0,0,0-7.25,1.46c-2.6,1.11-6.11,2.57-6.54,5.72a.56.56,0,0,0,.38.67c2.17.62,4.25-.3,6.39-.7a27.7,27.7,0,0,1,9.61.1,25.65,25.65,0,0,1,14.92,9c9.33,10.81,8.46,25.62,7,38.79A1.93,1.93,0,0,0,67.23,119.5Z"/><path class="cls-2" d="M85.51,45.25c3.1,7.1-1.77,13.9-7.52,17.64a29.4,29.4,0,0,1-4.64,2.46c1.67,2.76,3.78,4.56,7.5,4.19a16.17,16.17,0,0,0,10.26-5.36c4.91-5.37,8.46-12.47,10.82-19.4,1.78-5.23,3.32-11.31,2.58-17a28.32,28.32,0,0,1-4.78,14.87c-1.78,2.77-5,6.27-8.12,3.24C89.09,43.43,88.08,39,87.27,35.7c-1.73-7.07-.61-13.89.3-20.9a15.64,15.64,0,0,0-2.85,1.26.93.93,0,0,1-.57.12c.62,7.37-2.45,15.91-6.94,21.49C80.83,39.5,84,41.89,85.51,45.25Z"/><path class="cls-2" d="M75.24,36.74c2.41-5.78,6.48-10.85,6.57-17.5a19.13,19.13,0,0,0-.87-6.07A13.82,13.82,0,0,1,77.87,23a13.85,13.85,0,0,1-5.68,4.27l-.51.08a12.29,12.29,0,0,1-4.44-.25l-1.35-.39a16.41,16.41,0,0,1-5.46-3.25,15.58,15.58,0,0,1-5-11.64A14.35,14.35,0,0,1,56.7,6.13,5,5,0,0,0,54.7,9c-1.52,6.36.22,13.29-1.41,19.54a.68.68,0,0,1-.18.32,124.83,124.83,0,0,1,12.82,4.31C68.56,34.21,72,35.29,75.24,36.74Z"/><path class="cls-2" d="M7,52.23A61.57,61.57,0,0,1,16.84,41.5c2.84-2.54,5.83-5.34,9.05-7.77-2.47-1.41-2.49-5.76-2.84-8.37-.4-3-.65-6.49.73-9.23a.32.32,0,0,1,.58.08c1.19,3.41.74,7.39,1.43,10.94.39,2,1.44,4.13.77,6.07a28,28,0,0,1,11.9-5.45A35,35,0,0,1,52,28.63l0,0c-1.51-4.43-.79-10.15-.49-14.77a30.9,30.9,0,0,1,.62-5.3,25.86,25.86,0,0,0-5.66-4.26,13.7,13.7,0,0,1,1,5.42,13.7,13.7,0,0,1-5,11.33,11.3,11.3,0,0,1-11.82,1.6c-4.24-2.06-6.22-6.81-3.28-10.87.57-.78-.54-1.83-1.31-1.31a9.3,9.3,0,0,0-1.74,1.43c-3.8,3.8-4,9.46-5.34,14.69a54.91,54.91,0,0,1-4.6,11.54c-1.64,3.2-3.79,6.3-5,9.68C8.56,49.27,7.8,50.76,7,52.23Z"/><path class="cls-2" d="M51.73,128c.59.1.39,1-.13,1-7.57.6-15-2.63-21.06-7.37A55.69,55.69,0,0,1,33,136.78c0,1,.05,1.93.06,2.9A22.56,22.56,0,0,1,39,133.25a18.21,18.21,0,0,1,6.87-3,53.58,53.58,0,0,0,16.76,2,1.53,1.53,0,0,0,.77-2.83c-5.38-3.3-12.07-5.47-18-7.7a75.1,75.1,0,0,1-17.65-9,41.91,41.91,0,0,1-7.42-7C27.74,117,37.57,125.75,51.73,128Z"/><path class="cls-2" d="M82.43,45.18a8.2,8.2,0,0,1-2,7.8c-4,4.33-9.67,6.15-15.43,6.79S53,60,47.63,57.31C42.9,55,40.06,50.25,38.24,45.48a1.22,1.22,0,0,0-2.34,0c-2.55,6.72,1.78,13.11,6.9,17.3a20.93,20.93,0,0,1,3.68.27,27.11,27.11,0,0,1-9-9.95.77.77,0,0,1,1.33-.8,33.63,33.63,0,0,0,3.71,4.56c6.76,6.86,16.63,10.25,26,7.59C75.48,62.45,89,53.38,82.43,45.18Z"/><path class="cls-2" d="M97.17,139.33a41,41,0,0,1,2-11.08c-4.71,2.4-10,3.3-14.81,1a.72.72,0,0,1-.26-1c-3.17.63-6.4.79-9.52,1.68a.13.13,0,0,0-.06.21c3.43,3.1,8.57,3.75,13.6,3.25.78.42,1.56.85,2.31,1.34a16.46,16.46,0,0,1,5.19,6,22.2,22.2,0,0,1,1.87,4.89A38.54,38.54,0,0,1,97.17,139.33Z"/><path class="cls-2" d="M37.09,30.88a28.19,28.19,0,0,0-3.8,1.53,33.6,33.6,0,0,1,10.19-2.25l.78,0A19.11,19.11,0,0,0,37.09,30.88Z"/><path class="cls-2" d="M111.22,112.53a57.59,57.59,0,0,1-13.62,10.52,54,54,0,0,1-11.06,4.62c-.29.09-.58.16-.88.24,4.56.24,8.82.06,13-2.29A31,31,0,0,0,109.74,115C110.25,114.2,110.74,113.37,111.22,112.53Z"/><path class="cls-2" d="M67.18,67.46a31.61,31.61,0,0,1,6.19,2.38,6.63,6.63,0,0,1-2.43-3.6,29.43,29.43,0,0,1-4.45,1Z"/></g><g class="cls-4"><path class="cls-2" d="M41.31,5.75a4.76,4.76,0,0,0-4-1.52,4.34,4.34,0,0,0-4,1.75,7.87,7.87,0,0,0-1.58,6.55,3.83,3.83,0,0,0,3.69,2.81c3,.11,6.29-1.67,7.18-4.69A5.33,5.33,0,0,0,41.31,5.75Z"/><path class="cls-2" d="M75.18,9.36a4.52,4.52,0,0,0-2-1.79A4.74,4.74,0,0,0,71.1,5.82a6.06,6.06,0,0,0-5.32.1c-3.33,1.49-3.8,6.45-1.08,8.71,2.44,2,7,3.16,9.52.62A4.88,4.88,0,0,0,75.18,9.36Z"/><path class="cls-2" d="M100.43,20.58a7,7,0,0,0-2-2.64c-1.06-.85-2.48-1.8-3.92-1.66-2.14.21-3.9,1.48-3.48,3.86a3.65,3.65,0,0,0,1.29,2c.39.31.67.6,1.1.92-.62-.46-.11,0,.16.22l.19.23a6.65,6.65,0,0,1,.43.69A4.64,4.64,0,0,0,96,26.17a2.82,2.82,0,0,0,4.11-.79l.37-.48a3.41,3.41,0,0,0,.47-1.73A5.2,5.2,0,0,0,100.43,20.58Z"/><path class="cls-2" d="M117.64,40.87a4.2,4.2,0,0,0-1.36-1.42,3.09,3.09,0,0,0-3.42,0,2.46,2.46,0,0,0-1.11,1.45,4.16,4.16,0,0,0,.07,1.59,2.59,2.59,0,0,0,.42.84c.22.32.41.63.63.94l-.18-.24.11.16a2.83,2.83,0,0,0,5.27-1.43A3.45,3.45,0,0,0,117.64,40.87Z"/><path class="cls-2" d="M59.94,39.41c-6.33-6.59-20.56-12-27.78-3.59-1.81,2.12-.15,5.92,2.89,5A30.19,30.19,0,0,1,46.38,39a21.17,21.17,0,0,1,6.49,1,23.31,23.31,0,0,0,6.4,1A1,1,0,0,0,59.94,39.41Z"/><path class="cls-2" d="M110.46,96a112.17,112.17,0,0,0-10.84,13.42c-1.9,2.78,2,5,4.27,3.29a21,21,0,0,0,8-16.11A.87.87,0,0,0,110.46,96Z"/><path class="cls-2" d="M23,95.07C22,89.32,18.38,84,16.24,78.63c-2.37-5.94-2.66-11.89-2.87-18.19-.06-1.78-2.7-2.78-3.57-1C6.83,65.64,8,72.8,10.22,79s5.95,13.2,11.37,17.13C22.36,96.73,23.16,95.81,23,95.07Z"/></g><path class="cls-5" d="M126.28,48.75c-2.15-8.88-9.7-18.17-19.17-18.28a23.76,23.76,0,0,0-3.47-12c-3.9-6.27-13.91-10-19.74-4.33A14.24,14.24,0,0,0,73.48,2.52c-3.34-1-7-.82-10.45-.65-3.17.15-6.11.64-8.67,2.69a5.75,5.75,0,0,0-1.5,1.86C48.87.2,39.79-.94,33.29.64c-8.77,2.14-15.56,9.6-20.68,16.8C3.05,30.87-3.29,51.3,1.8,67.92c.22,7.51,4.12,14.92,7,21.56,4.45,10.23,9.56,20.33,17.36,28.3.77.78,1.57,1.55,2.41,2.28,1.11,6.84,2.28,13.5,2.21,20.48-.05,5.08-2.1,12,1.7,16.27,3.46,3.85,8.8,5.65,13.51,7.27a68.26,68.26,0,0,0,18,3.4c11,.68,24.32-1.16,33.92-7.2,4.61-2.9,3.09-8.43,2.22-12.88-1.36-6.94-.34-14.15,1.84-20.8a35,35,0,0,0,7.85-7.19c7.36-9.22,11.16-22,14-33.39C126.83,74.18,129.2,60.82,126.28,48.75ZM84.15,16.18a.93.93,0,0,0,.57-.12c6.91-3.9,13.9-1.69,17.78,5.4s1.9,16.06-.58,23.32c-2.36,6.93-5.91,14-10.82,19.4a16.17,16.17,0,0,1-10.26,5.36c-3.72.37-5.83-1.43-7.5-4.19A29.4,29.4,0,0,0,78,62.89c5.75-3.75,10.62-10.54,7.52-17.64-1.47-3.36-4.68-5.75-8.3-7.58C81.7,32.09,84.78,23.56,84.15,16.18ZM73.37,69.84a31.61,31.61,0,0,0-6.19-2.38l-.69-.18a29.44,29.44,0,0,0,4.45-1A6.63,6.63,0,0,0,73.37,69.84ZM53.28,28.59C54.92,22.33,53.17,15.41,54.7,9S68.25,4,72.78,5.12c6.43,1.53,9.1,7.87,9,14.12-.09,6.65-4.16,11.72-6.57,17.5-3.27-1.45-6.68-2.53-9.31-3.52A124.83,124.83,0,0,0,53.1,28.9.68.68,0,0,0,53.28,28.59Zm-41.57-5C16,16,21.93,8.93,29.54,4.87A20.49,20.49,0,0,1,41.08,2.66c4.48.39,7.84,2.85,11,5.86a30.9,30.9,0,0,0-.62,5.3c-.31,4.62-1,10.34.49,14.77l0,0a35,35,0,0,0-13.52-.86,28,28,0,0,0-11.9,5.45c.66-1.94-.38-4.06-.77-6.07-.69-3.56-.24-7.53-1.43-10.94a.32.32,0,0,0-.58-.08c-1.38,2.74-1.13,6.24-.73,9.23.35,2.61.36,7,2.84,8.37-3.22,2.42-6.22,5.22-9.05,7.77-6.15,5.52-12,11.75-14.24,20C1.51,48.33,5.06,35,11.71,23.54Zm109.7,61.77c-2.51,10.26-6,20.79-11.67,29.69a31,31,0,0,1-11.07,10.61c-4.47,2.51-9,2.55-13.95,2.24a.78.78,0,0,0-.37,1.43c4.86,2.26,10.1,1.36,14.81-1a41,41,0,0,0-2,11.08,42.24,42.24,0,0,0,.46,7.53c.42,3.16,2,6.53.58,9.65-1.14,2.54-5.67,3.61-7.95,4.45a67.28,67.28,0,0,1-7.57,2.25,66.41,66.41,0,0,1-33.86-1c-4.93-1.42-11.71-3.38-15-7.76-1.82-2.46-1.25-6.06-1-8.92a75.21,75.21,0,0,0,.13-8.74,55.69,55.69,0,0,0-2.44-15.1c6.05,4.74,13.49,8,21.06,7.37.53,0,.72-.92.13-1-19.86-3.2-31.19-19-39.25-36.72C8.24,82,2.35,71.44,5.44,60.9c2.82-9.6,12-16.63,19.18-22.69a37,37,0,0,1,12.47-7.33c5.44-1.72,11.17-.36,16.49,1.12,4.72,1.32,9.36,2.93,13.94,4.7S77,40.24,80.76,43.46c10.14,8.6-4.78,18.85-12.28,21-9.32,2.66-19.19-.73-26-7.59a33.62,33.62,0,0,1-3.71-4.56.77.77,0,0,0-1.33.8,27.11,27.11,0,0,0,9,9.95c-4.63-.74-9.29,0-13.08,2.87-.71.55-.32,1.78.63,1.54,5.2-1.36,9.65-2.35,15-1.06s9.64,4.72,13.09,8.87c7.79,9.38,7.69,21.41,7.62,33a.39.39,0,0,0,.77.11c3.62-11.75.77-25.44-6.59-35A26,26,0,0,0,59.49,69c1.68.1,3.42,0,5,.28a28.21,28.21,0,0,1,10.6,4.33c6.34,4.1,10,10.76,12.62,17.78.1.27.55.26.53-.07A26.63,26.63,0,0,0,78,72.74c-.52-.4-1-.77-1.58-1.13,3.24,1.22,7.22.58,10.23-.91a21.41,21.41,0,0,0,2.11-1.22c.12,2.24,3,4.54,4.59,5.45,3.67,2.09,8.47,1.25,12.19-.17,7.86-3,14.09-12.15,12-20.92-.11-.45-.85-.5-.92,0-1,7.09-3.22,13.28-9.35,17.28a15.73,15.73,0,0,1-11,2.38,7.93,7.93,0,0,1-5-3.31c-.49-.68-.65-1.25-1-1.75C97,63.29,101,54.45,104,46.62a45,45,0,0,0,3.09-14C130.39,36.75,125.6,68.13,121.41,85.31Z"/></g></g></g></svg>