<svg xmlns="http://www.w3.org/2000/svg" viewBox="0 0 137.24 189.96"><defs><style>.cls-1{isolation:isolate;}.cls-2,.cls-3{fill:#f2c1b3;}.cls-3,.cls-4{mix-blend-mode:multiply;}.cls-5{opacity:0.5;mix-blend-mode:screen;}.cls-6{fill:#333;}</style></defs><title>Asset 2</title><g class="cls-1"><g id="Layer_2" data-name="Layer 2"><g id="Layer_1-2" data-name="Layer 1"><path class="cls-2" d="M118,140.11a31.69,31.69,0,0,1-6.36,14,34.07,34.07,0,0,1-11.42,9c-4.54,2.33-9.12,2.85-14,3.86a.42.42,0,0,0,0,.81c5.38,1.19,11.07,0,16.17-2.51,0,0,0,.09.06.14,1.74,3.19,3.39,6.31,2.53,10-.75,3.24-6.35,5-9,6a74.78,74.78,0,0,1-49.88,2.09c-.23-4.94-.07-10-.67-14.87a49.55,49.55,0,0,0,11,2.08q1.23,0,2.47,0c.58,0,.76-1,.14-1C43,167.2,28.41,157.75,22,142.43a42.76,42.76,0,0,1-2.44-24.25c.94-5,3.46-9.16,8.43-11,4.53-1.64,10-1.5,14.72-1.55,15.16-.15,44.9,3.47,45.55,23.7.31,9.71-9.54,15.58-18.09,15.8-9,.23-17.19-5.53-21.69-13a.93.93,0,0,0-1.6.94c3.93,8,11.71,14,20.76,14.91C77,149,86.09,144.77,90,135.89c3.66-8.25-.45-17.74-7.24-23-8.77-6.76-20.46-8.93-31.23-10-6.52-.67-15.22-1.38-22.41.6C24.3,88.15,17.78,73.28,11.73,58.39,8.72,51,5.88,43.52,4.21,35.67c-1.82-8.58-2-17.5,6.7-22.08A44.24,44.24,0,0,1,21.54,9.74c5.32-1.22,9,1.73,11.77,5.91,4.32,6.65,6.94,14.69,9.48,22.15s4.91,15.3,7.35,23,4.34,16.1,7.81,23.4c.29.62,1.09.14,1-.43l0-.16a.37.37,0,0,0,0-.19c-.53-3.52-.52-7.2-1-10.76-.56-3.91-1-7.84-1.33-11.77-.65-7.1-1-14.2-1.1-21.33s.27-14.25.87-21.35c.67-7.82,2.54-14.69,11.69-15,5.66-.17,12.38.72,17.38,3.45C92,10.26,91.76,19,91.81,25.46A197.75,197.75,0,0,1,90.75,46.9C90,53.91,88.07,61,88,68.08c0,.6.92.92,1.19.32.1-.23.2-.47.3-.7,3.64-2.78,6.48-5.33,11.32-5.84,3.91-.42,7,1.06,9.76,3.16a20.91,20.91,0,0,1,5.68,9.65c3.06,10.74-2.5,23.49-8.28,32.38-3.07,4.73-8.21,8.38-14.06,7.55-6-.86-7.82-7.71-7.58-12.82.44-9.28,9.14-19.93,4.33-29.18a.47.47,0,0,0-.87.23,35,35,0,0,1-1,11.73c-1,3.49-2.56,6.83-3.76,10.26-2,5.65-2.32,11.65.47,17.06,2.37,4.59,8,6.79,12.94,5.7a17.62,17.62,0,0,0,7.46-3.64,11.73,11.73,0,0,0,11,13.7c.52,0,1,0,1.51,0C118.12,131.78,118.76,135.86,118,140.11Z"/><path class="cls-2" d="M132.49,106.94c-1.54,6.68-4.62,14.24-11.38,17-7.94,3.28-13.6-4.51-13.5-11.61a31.22,31.22,0,0,0,4.42-5.83c5.37-8.9,9.53-20.34,7.64-30.79,7.26-3.72,11.59,3.12,13.12,9.63A47.8,47.8,0,0,1,132.49,106.94Z"/><path class="cls-3" d="M110,125a11.7,11.7,0,0,1-4.14-11.07,17.62,17.62,0,0,1-7.46,3.64c-4.93,1.08-10.57-1.11-12.94-5.7C82.69,106.45,83,100.45,85,94.81l.26-.71a.89.89,0,0,0-.67-.63l-.29-.06a1.46,1.46,0,0,0-1.42.37,15.19,15.19,0,0,0-3.6,11.37c-4.49-2.15-11.08-3.56-15.39-1.08a.42.42,0,0,0,0,.7c6.82,1.5,13.44,3.93,18.92,8.15,6.61,5.09,10.68,14.22,7.52,22.3.66-.6,1.3-1.19,1.85-1.76a38.91,38.91,0,0,1,7.5-6.06,15.37,15.37,0,0,1,9.93-2.32A1.12,1.12,0,0,0,110,125Z"/><g class="cls-4"><path class="cls-2" d="M118.4,127.6c-.49,0-1,0-1.51,0a11.73,11.73,0,0,1-11-13.7,17.62,17.62,0,0,1-7.46,3.64c-4.93,1.08-10.57-1.11-12.94-5.7C82.69,106.45,83,100.45,85,94.81c1.2-3.43,2.75-6.77,3.76-10.26a35,35,0,0,0,1-11.73.47.47,0,0,1,.87-.23c4.81,9.25-3.88,19.9-4.33,29.18-.24,5.11,1.53,12,7.58,12.82,5.85.83,11-2.83,14.06-7.55,5.54-8.52,10.89-20.61,8.6-31.07q.12,2.06.06,4.13c-.3,10.35-5.43,21.88-14.6,27.27-4.28,2.52-9.65,1.33-11.12-3.63-1.35-4.56,1.08-9.64,2.67-13.8,2.23-5.82,4.21-15.9-1.23-20.53L93.06,67c.24-.83.48-1.66.71-2.49-1.43.94-2.79,2-4.29,3.19-.1.23-.19.47-.3.7-.27.6-1.2.28-1.19-.32.09-7,2.06-14.17,2.76-21.18.05-.52.1-1,.15-1.57C90,49.67,89.06,54,88,58.27c-1.57,6.29-3.25,12.84-6,18.71-2.24,4.69-7.45,10.3-13.26,7.79-2.78-1.2-3.5-4.79-4.31-7.38-1.09-3.53-2-7.12-2.86-10.72A166.5,166.5,0,0,1,58,45.73a177.88,177.88,0,0,1-.85-20.78c.07-4.88.47-9.73.66-14.6a31,31,0,0,0-1.48,7.82c-.6,7.1-.93,14.22-.87,21.35s.45,14.23,1.1,21.33c.36,3.93.77,7.86,1.33,11.77.51,3.56.5,7.24,1,10.76a.37.37,0,0,1,0,.19l0,.16c.08.56-.72,1-1,.43C55.4,78.8,53.7,72.85,52,67c.61,3.34,1.15,6.7,1.56,10.05.84,6.95-.5,16.43-9.22,16.79C37,94.16,30.44,88,26,82.88c-5.08-5.8-8.61-13-11.64-20a204.15,204.15,0,0,1-8.85-23,58.15,58.15,0,0,1-2.13-15,34.5,34.5,0,0,0,.86,10.78C5.88,43.52,8.72,51,11.73,58.39c6,14.89,12.57,29.75,17.42,45.1,7.19-2,15.89-1.27,22.41-.6,10.77,1.1,22.46,3.27,31.23,10,6.79,5.23,10.91,14.72,7.24,23C86.09,144.77,77,149,67.6,148c-9-.89-16.83-6.88-20.76-14.91a.93.93,0,0,1,1.6-.94c4.5,7.43,12.73,13.19,21.69,13,8.55-.22,18.4-6.09,18.09-15.8-.3-9.44-6.93-15.26-15.46-18.77a35.42,35.42,0,0,1,3.06,2.27c4.71,3.94,7.91,9.94,6.39,16.14-1.33,5.44-6.66,8.76-11.77,9.89-6,1.31-12.42-1.44-17.15-4.84a43.39,43.39,0,0,1-6.25-5.85c-1.52-1.63-2.7-3.58-4.3-5.11-.45-.82-.91-1.64-1.4-2.46a1.46,1.46,0,0,0-2.64.35c-2.08,11.49,7.69,22.75,16.88,28.21a32,32,0,0,0,19.18,4.44C81.61,153,87,148.95,92,144.56c4.81-4.23,9.75-9.62,16.63-9.63,8,0,7.38,8.18,4.52,13.32s-8,9-13.29,11.71c-2.56,1.31-5.31,1.88-8,2.76-3,1-6,.52-9,1.52a1.59,1.59,0,0,0-.37,2.87c2.55,2,6.19,2.5,9.79,2.35a23.63,23.63,0,0,1,10.56,5.35,17.69,17.69,0,0,1,1.66,1.72,3.65,3.65,0,0,0,.48-1.12c.87-3.73-.79-6.85-2.53-10,0,0,0-.09-.06-.14-5.11,2.5-10.8,3.7-16.17,2.51a.42.42,0,0,1,0-.81c4.88-1,9.47-1.54,14-3.86a34.07,34.07,0,0,0,11.42-9,31.69,31.69,0,0,0,6.36-14C118.76,135.86,118.12,131.78,118.4,127.6Z"/><path class="cls-2" d="M72.78,164.95a38.7,38.7,0,0,1-8.51-2.3c-2.72-1.09-6-1.34-8.8-2a60.08,60.08,0,0,1-17.72-7.73,65.64,65.64,0,0,1-12.45-10.77c-1.84-2-3.62-4.59-5.58-7A40.48,40.48,0,0,0,22,142.43c6.43,15.33,21,24.77,37.16,27.25.62.09.44,1-.14,1q-1.23.06-2.47,0a49.56,49.56,0,0,1-11-2.08A101.35,101.35,0,0,1,46,179a27.26,27.26,0,0,1,7.67-7.15,56.14,56.14,0,0,0,5.8-.47q3.09-.42,6.14-1c2.5-.5,4.7-1.7,7.15-2.33C74.2,167.64,74.38,165.19,72.78,164.95Z"/><path class="cls-2" d="M114.56,110.35c.74-3.41,2.83-6.57,4.26-9.72a70.13,70.13,0,0,0,3.77-10.84c1.16-4.33,2.61-10.11,1.94-15a8,8,0,0,0-4.86,1c1.9,10.46-2.26,21.89-7.64,30.79a31.22,31.22,0,0,1-4.42,5.83c-.11,7.1,5.55,14.89,13.5,11.61a14,14,0,0,0,3.78-2.34C118.73,122,113.13,117,114.56,110.35Z"/></g><g class="cls-5"><path class="cls-2" d="M102.37,64.92c-4.28,0-4.59,5.65-1,7.05,2.22.86,4.15,1.37,5.62,3.44s1.51,5,1.8,7.38c.19,1.55,2,2.67,3.27,1.35C118.85,77.18,111.12,64.89,102.37,64.92Z"/><path class="cls-2" d="M132.41,88.77c-.25-1.33-1.84-7.54-4.4-6.26-2,1-1.74,3.32-1.47,5.22a54.85,54.85,0,0,1,.74,8.17,1.59,1.59,0,0,0,2.36,1.35C132.83,95.78,133,91.76,132.41,88.77Z"/><path class="cls-2" d="M109.31,143.71c-.22-2.12-1.63-4-3.95-3.95s-4,1.57-5.19,3.5a6.49,6.49,0,0,0-1,4.91,3.14,3.14,0,0,0,3,2.26c1.75.17,3.18-.81,4.48-1.82C108.11,147.45,109.52,145.75,109.31,143.71Z"/><path class="cls-2" d="M45.09,110.83c-1.62-7.4-13.58-4.71-18-2.09-2.88,1.71-4.6,4.64-5.76,7.67-.91,2.36-1.36,6.07.29,8.15a.33.33,0,0,0,.47,0c1.24-1.51,1.39-3.43,2.61-5a19.5,19.5,0,0,1,5.72-5.13,12,12,0,0,1,7.52-1.31c2.28.32,4.08.83,6.26-.13A1.92,1.92,0,0,0,45.09,110.83Z"/><path class="cls-2" d="M66.46,112.61a1,1,0,0,0-.6,1.49c1.07,1.76,2.78,3,4.26,4.39,1.87,1.76,2.05,5,1.57,7.33-.44,2.15-.86,3.82.08,5.91.69,1.54,3.46,1.37,4.62.7C85.93,126.84,75.46,110.95,66.46,112.61Z"/></g><path class="cls-6" d="M134.36,79.66c-1.61-3.66-3.9-6.37-7.68-7.79a7.77,7.77,0,0,0-7.61,1.29,25.26,25.26,0,0,0-2.3-5.52C111.51,58.33,97.89,54.57,91,63.37c1.65-5.81,2.18-12.19,2.84-18a153,153,0,0,0,1-26.8c-.38-6-2.55-11.35-7.73-14.69S74.08.1,68.05,0C51.39-.28,52.76,20.23,52.44,31.88a220.71,220.71,0,0,0,.9,25.93c.21,2.34.49,4.67.81,7-1-3.08-1.94-6.13-2.8-9.15-2.6-9.13-5.26-18.23-8.67-27.09C40.2,22.11,37.4,13.24,31.59,9,24.94,4.1,17.16,7.45,10.41,10.38c-16.36,7.09-9.7,27.71-5,40.47,3.36,9.22,7.24,18.31,11,27.36,3.62,8.63,7.15,17.33,11.33,25.71a18.49,18.49,0,0,0-6.67,3.79c-6.71,6.16-6.06,18.91-4.67,27a45.33,45.33,0,0,0,14.48,25.64,38.92,38.92,0,0,0,12.46,7.6c-.6,5.53-.06,11.22-.19,16.78a1.55,1.55,0,0,0,1.12,1.47,77.81,77.81,0,0,0,42.29,1.63,74.84,74.84,0,0,0,10.32-3.3c2.85-1.12,6.67-2.33,8.83-4.58,4.68-4.89,2.36-10.94-.55-16.12l0-.05a36.34,36.34,0,0,0,8.79-7.43c5.76-6.78,10.81-20.2,6.66-29,7.63-1.69,11.9-9.58,14.23-16.79C137.84,101.13,138.4,88.85,134.36,79.66ZM118,140.11a31.69,31.69,0,0,1-6.36,14,34.07,34.07,0,0,1-11.42,9c-4.54,2.33-9.12,2.85-14,3.86a.42.42,0,0,0,0,.81c5.38,1.19,11.07,0,16.17-2.51,0,0,0,.09.06.14,1.74,3.19,3.39,6.31,2.53,10-.75,3.24-6.35,5-9,6a74.78,74.78,0,0,1-49.88,2.09c-.23-4.94-.07-10-.67-14.87a49.55,49.55,0,0,0,11,2.08q1.23,0,2.47,0c.58,0,.76-1,.14-1C43,167.2,28.41,157.75,22,142.43a42.76,42.76,0,0,1-2.44-24.25c.94-5,3.46-9.16,8.43-11,4.53-1.64,10-1.5,14.72-1.55,15.16-.15,44.9,3.47,45.55,23.7.31,9.71-9.54,15.58-18.09,15.8-9,.23-17.19-5.53-21.69-13a.93.93,0,0,0-1.6.94c3.93,8,11.71,14,20.76,14.91C77,149,86.09,144.77,90,135.89c3.66-8.25-.45-17.74-7.24-23-8.77-6.76-20.46-8.93-31.23-10-6.52-.67-15.22-1.38-22.41.6C24.3,88.15,17.78,73.28,11.73,58.39,8.72,51,5.88,43.52,4.21,35.67c-1.82-8.58-2-17.5,6.7-22.08A44.24,44.24,0,0,1,21.54,9.74c5.32-1.22,9,1.73,11.77,5.91,4.32,6.65,6.94,14.69,9.48,22.15s4.91,15.3,7.35,23,4.34,16.1,7.81,23.4c.29.62,1.09.14,1-.43l0-.16a.37.37,0,0,0,0-.19c-.53-3.52-.52-7.2-1-10.76-.56-3.91-1-7.84-1.33-11.77-.65-7.1-1-14.2-1.1-21.33s.27-14.25.87-21.35c.67-7.82,2.54-14.69,11.69-15,5.66-.17,12.38.72,17.38,3.45C92,10.26,91.76,19,91.81,25.46A197.75,197.75,0,0,1,90.75,46.9C90,53.91,88.07,61,88,68.08c0,.6.92.92,1.19.32.1-.23.2-.47.3-.7,3.64-2.78,6.48-5.33,11.32-5.84,3.91-.42,7,1.06,9.76,3.16a20.91,20.91,0,0,1,5.68,9.65c3.06,10.74-2.5,23.49-8.28,32.38-3.07,4.73-8.21,8.38-14.06,7.55-6-.86-7.82-7.71-7.58-12.82.44-9.28,9.14-19.93,4.33-29.18a.47.47,0,0,0-.87.23,35,35,0,0,1-1,11.73c-1,3.49-2.56,6.83-3.76,10.26-2,5.65-2.32,11.65.47,17.06,2.37,4.59,8,6.79,12.94,5.7a17.62,17.62,0,0,0,7.46-3.64,11.73,11.73,0,0,0,11,13.7c.52,0,1,0,1.51,0C118.12,131.78,118.76,135.86,118,140.11Zm14.47-33.18c-1.54,6.68-4.62,14.24-11.38,17-7.94,3.28-13.6-4.51-13.5-11.61a31.22,31.22,0,0,0,4.42-5.83c5.37-8.9,9.53-20.34,7.64-30.79,7.26-3.72,11.59,3.12,13.12,9.63A47.8,47.8,0,0,1,132.49,106.94Z"/></g></g></g></svg>